<svg xmlns="http://www.w3.org/2000/svg" viewBox="0 0 100 100" fill="none">
  <defs>
    <linearGradient id="gradient" x1="0%" y1="0%" x2="100%" y2="100%">
      <stop offset="0%" style="stop-color:#ec4899;stop-opacity:1" />
      <stop offset="100%" style="stop-color:#be185d;stop-opacity:1" />
    </linearGradient>
  </defs>
  
  <!-- Shopping Bag -->
  <path 
    d="M25 35 L25 80 C25 85 27 87 32 87 L68 87 C73 87 75 85 75 80 L75 35 Z" 
    fill="url(#gradient)"
    stroke="#be185d" 
    stroke-width="2"
  />
  
  <!-- Bag Handle -->
  <path 
    d="M30 35 C30 35, 30 25, 35 20 C38 17, 42 15, 50 15 C58 15, 62 17, 65 20 C70 25, 70 35, 70 35" 
    fill="none" 
    stroke="url(#gradient)" 
    stroke-width="3" 
    stroke-linecap="round"
  />
  
  <!-- Growth Arrow -->
  <g transform="translate(42, 48)">
    <path 
      d="M 8 20 L 8 5 L 0 10" 
      fill="white" 
      stroke="white" 
      stroke-width="2" 
      stroke-linecap="round" 
      stroke-linejoin="round"
    />
  </g>
  
  <!-- Sparkles -->
  <circle cx="20" cy="25" r="2" fill="#fbbf24" opacity="0.9"/>
  <circle cx="80" cy="30" r="2.5" fill="#fbbf24" opacity="0.9"/>
  <circle cx="85" cy="60" r="1.5" fill="#fbbf24" opacity="0.8"/>
</svg>
